HIERARCHY
ROOT Hips
{
	OFFSET 0.000000 0.000000 0.000000
	CHANNELS 6 Xposition Yposition Zposition Xrotation Yrotation Zrotation
	JOINT LeftUpLeg_virtual
	{
		OFFSET 0.000000 0.000000 0.000000
		CHANNELS 3 Xrotation Yrotation Zrotation
		JOINT LeftUpLeg
		{
			OFFSET 10.205400 -3.823500 0.155100
			CHANNELS 3 Xrotation Yrotation Zrotation
			JOINT LeftLeg
			{
				OFFSET 0.708757 -12.982077 0.567790
				CHANNELS 3 Xrotation Yrotation Zrotation
				JOINT LeftFoot
				{
					OFFSET -0.708756 -10.717838 -2.184338
					CHANNELS 3 Xrotation Yrotation Zrotation
					JOINT LeftToeBase
					{
						OFFSET 0.108149 -7.191104 7.560241
						CHANNELS 3 Xrotation Yrotation Zrotation
						JOINT LeftToe_End
						{
							OFFSET 0.070230 0.081724 4.490308
							CHANNELS 3 Xrotation Yrotation Zrotation
							End Site
							{
								OFFSET 0 0 0
							}
						}
					}
				}
			}
		}
	}
	JOINT RightUpLeg_virtual
	{
		OFFSET 0.000000 0.000000 0.000000
		CHANNELS 3 Xrotation Yrotation Zrotation
		JOINT RightUpLeg
		{
			OFFSET -10.205400 -3.823500 0.005500
			CHANNELS 3 Xrotation Yrotation Zrotation
			JOINT RightLeg
			{
				OFFSET -0.708756 -12.982134 0.610632
				CHANNELS 3 Xrotation Yrotation Zrotation
				JOINT RightFoot
				{
					OFFSET 0.708754 -10.717769 -1.945823
					CHANNELS 3 Xrotation Yrotation Zrotation
					JOINT RightToeBase
					{
						OFFSET -0.108140 -7.191069 7.372968
						CHANNELS 3 Xrotation Yrotation Zrotation
						JOINT RightToe_End
						{
							OFFSET -0.070227 0.081735 4.479403
							CHANNELS 3 Xrotation Yrotation Zrotation
							End Site
							{
								OFFSET 0 0 0
							}
						}
					}
				}
			}
		}
	}
	JOINT Spine_virtual
	{
		OFFSET 0.000000 0.000000 0.000000
		CHANNELS 3 Xrotation Yrotation Zrotation
		JOINT Spine
		{
			OFFSET 0.000000 6.876099 0.125700
			CHANNELS 3 Xrotation Yrotation Zrotation
			JOINT Spine1
			{
				OFFSET 0.000000 5.730043 0.104720
				CHANNELS 3 Xrotation Yrotation Zrotation
				JOINT Spine1_split
				{
					OFFSET 0.000000 5.730043 0.104720
					CHANNELS 3 Xrotation Yrotation Zrotation
					JOINT Spine2
					{
						OFFSET 0.000000 5.730043 0.104720
						CHANNELS 3 Xrotation Yrotation Zrotation
						JOINT Neck_virtual
						{
							OFFSET 0.000000 0.000000 0.000000
							CHANNELS 3 Xrotation Yrotation Zrotation
							JOINT Neck
							{
								OFFSET 0.000000 10.314075 0.188496
								CHANNELS 3 Xrotation Yrotation Zrotation
								JOINT Head
								{
									OFFSET 0.000000 7.643700 -2.377400
									CHANNELS 3 Xrotation Yrotation Zrotation
									JOINT HeadTop_End
									{
										OFFSET 0.000000 43.788605 -13.619600
										CHANNELS 3 Xrotation Yrotation Zrotation
										End Site
										{
											OFFSET 0 0 0
										}
									}
								}
							}
						}
						JOINT LeftShoulder_virtual
						{
							OFFSET 0.000000 0.000000 0.000000
							CHANNELS 3 Xrotation Yrotation Zrotation
							JOINT LeftShoulder
							{
								OFFSET 2.196100 4.412489 0.087492
								CHANNELS 3 Xrotation Yrotation Zrotation
								JOINT LeftShoulder_split
								{
									OFFSET 2.196100 4.412489 0.087492
									CHANNELS 3 Xrotation Yrotation Zrotation
									JOINT LeftArm
									{
										OFFSET 8.771219 -2.981674 -0.026999
										CHANNELS 3 Xrotation Yrotation Zrotation
										JOINT LeftForeArm
										{
											OFFSET 8.512804 0.000000 -0.000000
											CHANNELS 3 Xrotation Yrotation Zrotation
											JOINT LeftHand
											{
												OFFSET 18.484802 0.000000 -0.000000
												CHANNELS 3 Xrotation Yrotation Zrotation
												End Site
												{
													OFFSET 0 0 0
												}
											}
										}
									}
								}
							}
						}
						JOINT RightShoulder_virtual
						{
							OFFSET 0.000000 0.000000 0.000000
							CHANNELS 3 Xrotation Yrotation Zrotation
							JOINT RightShoulder
							{
								OFFSET -2.196100 4.412496 0.070690
								CHANNELS 3 Xrotation Yrotation Zrotation
								JOINT RightShoulder_split
								{
									OFFSET -2.196100 4.412496 0.070690
									CHANNELS 3 Xrotation Yrotation Zrotation
									JOINT RightArm
									{
										OFFSET -8.771282 -2.981682 -0.094208
										CHANNELS 3 Xrotation Yrotation Zrotation
										JOINT RightForeArm
										{
											OFFSET -8.494598 0.000000 0.000000
											CHANNELS 3 Xrotation Yrotation Zrotation
											JOINT RightHand
											{
												OFFSET -18.483803 0.000000 0.000001
												CHANNELS 3 Xrotation Yrotation Zrotation
												End Site
												{
													OFFSET 0 0 0
												}
											}
										}
									}
								}
							}
						}
					}
				}
			}
		}
	}
}
MOTION
Frames: 7
Frame Time: 0.03333333
2.839131 30.796288 -0.431986 0.000000 0.000000 0.000000 7.678918 -12.359238 -1.232015 -38.236331 3.753866 17.322275 60.467405 6.312930 -1.310850 -26.683328 7.510357 -12.154727 -3.075547 -2.348349 -2.459374 0.000000 0.000000 0.000000 7.678918 -12.359238 -1.232015 -18.870032 -7.875330 -17.271957 53.986293 -4.439656 -3.453625 -26.922065 -5.573410 16.334314 -14.271855 -2.387945 5.487518 0.000000 0.000000 0.000000 7.678918 -12.359238 -1.232015 12.206174 3.243068 -0.943073 8.547020 6.722063 -1.512191 0.000000 0.000000 0.000000 0.000000 0.000000 0.000000 -3.408233 6.901168 -0.063847 -1.053642 -3.761030 2.184397 -5.982001 4.507763 3.913931 0.000000 0.000000 0.000000 -3.408233 6.901168 -0.063847 -1.721890 -5.625969 -0.861878 0.000000 0.000000 0.000000 -9.809317 -3.483224 -61.749650 -12.683620 -28.217835 -4.423309 0.000000 0.000000 0.000000 -3.408233 6.901168 -0.063847 5.552877 -18.831834 2.973351 0.000000 0.000000 0.000000 39.568290 52.456597 11.456125 15.406284 28.844346 12.492171 0.000000 0.000000 0.000000 
2.892755 31.060604 -0.436371 0.000000 0.000000 0.000000 7.716630 -12.625928 -1.536518 -37.679599 4.312158 17.487417 58.839532 6.199485 -1.023183 -25.894738 7.549744 -11.921377 -3.075553 -2.348383 -2.459385 0.000000 0.000000 0.000000 7.716630 -12.625928 -1.536518 -18.470288 -8.052598 -16.415451 48.415612 -3.804076 -3.084068 -26.248306 -3.975315 16.693303 -8.843537 -2.898048 4.936874 0.000000 0.000000 0.000000 7.716630 -12.625928 -1.536518 12.074916 3.192436 -0.869223 8.235416 6.693141 -1.358527 0.000000 0.000000 0.000000 0.000000 0.000000 0.000000 -3.710608 6.857831 0.094730 -1.458328 -3.264163 1.331756 -5.486251 4.125540 4.660446 0.000000 0.000000 0.000000 -3.710608 6.857831 0.094730 -1.716035 -4.454589 -0.893320 0.000000 0.000000 0.000000 -9.717401 -3.541829 -62.272269 -11.923619 -27.096124 -3.494361 0.000000 0.000000 0.000000 -3.710608 6.857831 0.094730 5.099000 -17.776582 2.830986 0.000000 0.000000 0.000000 31.146837 51.316871 16.165635 17.702681 22.785023 11.882981 0.000000 0.000000 0.000000 
2.937765 31.275051 -0.465687 0.000000 0.000000 0.000000 7.741617 -12.896833 -1.812050 -37.133874 4.342910 17.634244 57.572566 6.493686 -1.054399 -25.201194 7.518624 -11.885514 -3.075520 -2.348371 -2.459389 0.000000 0.000000 0.000000 7.741617 -12.896833 -1.812050 -18.259621 -8.347180 -15.672060 43.024489 -3.518927 -3.003446 -25.039634 -2.433523 17.110372 -4.405922 -3.051698 6.171840 0.000000 0.000000 0.000000 7.741617 -12.896833 -1.812050 11.939461 3.143766 -0.794819 7.915928 6.670847 -1.209775 0.000000 0.000000 0.000000 0.000000 0.000000 0.000000 -4.021066 6.836049 0.250614 -1.840866 -2.854065 0.319121 -4.930048 3.603732 5.350208 0.000000 0.000000 0.000000 -4.021066 6.836049 0.250614 -1.693605 -3.827961 -1.241179 0.000000 0.000000 0.000000 -9.593860 -3.482804 -62.534999 -11.037032 -26.271950 -2.727120 0.000000 0.000000 0.000000 -4.021066 6.836049 0.250614 4.610786 -16.271292 2.746239 0.000000 0.000000 0.000000 24.194362 47.069169 21.401093 20.960220 21.627941 10.737940 0.000000 0.000000 0.000000 
2.960586 31.431427 -0.458485 0.000000 0.000000 0.000000 7.715702 -12.970683 -2.081233 -36.719165 4.397069 17.892439 56.660131 6.417927 -1.207546 -24.755373 7.473330 -11.678279 -3.075545 -2.348375 -2.459381 0.000000 0.000000 0.000000 7.715702 -12.970683 -2.081233 -18.176441 -8.796123 -14.900570 38.385028 -1.460375 -3.149327 -23.445273 -2.904436 16.645685 -2.094355 -3.284955 5.374798 0.000000 0.000000 0.000000 7.715702 -12.970683 -2.081233 11.804648 3.089787 -0.718538 7.597626 6.639435 -1.064226 0.000000 0.000000 0.000000 0.000000 0.000000 0.000000 -4.329979 6.793163 0.400625 -2.097908 -2.467596 -0.485375 -4.703821 3.176679 5.961100 0.000000 0.000000 0.000000 -4.329979 6.793163 0.400625 -1.684020 -3.655052 -1.368850 0.000000 0.000000 0.000000 -9.364248 -3.313593 -62.863278 -10.281034 -25.321799 -1.958488 0.000000 0.000000 0.000000 -4.329979 6.793163 0.400625 4.022895 -14.699882 2.630184 0.000000 0.000000 0.000000 18.984057 43.625494 27.206240 21.850436 20.601126 9.208948 0.000000 0.000000 0.000000 
2.946576 31.569141 -0.419666 0.000000 0.000000 0.000000 7.307375 -12.805841 -2.323564 -35.933318 4.751987 18.178214 55.633902 5.876925 -1.370328 -24.344271 7.381115 -11.273211 -3.075517 -2.348365 -2.459379 0.000000 0.000000 0.000000 7.307375 -12.805841 -2.323564 -17.824611 -8.572628 -14.082640 35.016788 -0.006293 -3.504528 -21.730003 -3.952517 16.460647 -1.716937 -3.079100 6.618954 0.000000 0.000000 0.000000 7.307375 -12.805841 -2.323564 11.690081 2.987522 -0.632371 7.324747 6.494891 -0.931729 0.000000 0.000000 0.000000 0.000000 0.000000 0.000000 -4.590986 6.645015 0.513620 -2.350864 -2.140417 -1.082407 -4.321780 2.812426 6.500075 0.000000 0.000000 0.000000 -4.590986 6.645015 0.513620 -1.686314 -3.491249 -1.306887 0.000000 0.000000 0.000000 -9.128486 -3.161136 -63.281518 -9.621706 -24.665336 -1.360154 0.000000 0.000000 0.000000 -4.590986 6.645015 0.513620 3.436042 -12.677606 2.720421 0.000000 0.000000 0.000000 14.843960 39.461111 33.241230 22.083620 20.411400 7.131012 0.000000 0.000000 0.000000 
2.900649 31.729248 -0.359764 0.000000 0.000000 0.000000 6.514979 -12.278426 -2.644967 -34.751497 5.115663 18.370624 54.300257 5.031132 -1.433549 -23.730423 7.321044 -10.776880 -3.075538 -2.348377 -2.459379 0.000000 0.000000 0.000000 6.514979 -12.278426 -2.644967 -16.903736 -7.911004 -13.498242 32.633029 -1.324338 -3.605177 -20.408136 -3.337327 17.211021 -1.287512 -1.373572 5.867737 0.000000 0.000000 0.000000 6.514979 -12.278426 -2.644967 11.610460 2.851797 -0.513361 7.121378 6.275667 -0.751659 0.000000 0.000000 0.000000 0.000000 0.000000 0.000000 -4.781024 6.413117 0.656969 -2.346671 -1.940745 -1.582422 -4.023495 2.365327 7.157914 0.000000 0.000000 0.000000 -4.781024 6.413117 0.656969 -1.683977 -3.311985 -1.311794 0.000000 0.000000 0.000000 -9.066536 -3.203684 -63.661816 -8.896733 -23.916148 -0.825357 0.000000 0.000000 0.000000 -4.781024 6.413117 0.656969 2.823417 -10.771064 2.883945 0.000000 0.000000 0.000000 11.686291 34.989912 39.226295 20.903456 20.431836 5.441419 0.000000 0.000000 0.000000 
2.824279 31.862484 -0.283794 0.000000 0.000000 0.000000 5.832527 -11.585322 -2.749237 -33.614335 5.311302 18.135768 52.892425 4.397520 -1.240758 -22.990847 7.382317 -10.529142 -3.075568 -2.348382 -2.459390 0.000000 0.000000 0.000000 5.832527 -11.585322 -2.749237 -15.851892 -6.740833 -12.964967 31.402307 -2.750812 -4.274125 -20.665509 -4.056618 19.411888 -1.386872 -1.056281 5.608230 0.000000 0.000000 0.000000 5.832527 -11.585322 -2.749237 11.505126 2.713036 -0.400610 6.871411 6.046716 -0.607234 0.000000 0.000000 0.000000 0.000000 0.000000 0.000000 -5.017913 6.177899 0.762653 -2.262843 -1.908072 -2.185224 -3.777330 1.709236 7.965337 0.000000 0.000000 0.000000 -5.017913 6.177899 0.762653 -1.665087 -3.105137 -1.529659 0.000000 0.000000 0.000000 -9.143981 -3.384157 -63.951205 -8.306453 -23.428138 -0.465726 0.000000 0.000000 0.000000 -5.017913 6.177899 0.762653 2.183738 -8.911533 3.004740 0.000000 0.000000 0.000000 9.669403 30.271583 44.918674 18.140952 20.668646 4.430767 0.000000 0.000000 0.000000 
